0
SECTION
2
HEADER
9
$INSUNITS
70
4
9
$ACADVER
1
AC1014
9
$HANDSEED
5
FFFF
0
ENDSEC
0
SECTION
2
TABLES
0
TABLE
2
VPORT
5
8
100
AcDbSymbolTable
0
ENDTAB
0
TABLE
2
LTYPE
5
5
100
AcDbSymbolTable
0
LTYPE
5
14
100
AcDbSymbolTableRecord
100
AcDbLinetypeTableRecord
2
BYBLOCK
70
0
0
LTYPE
5
15
100
AcDbSymbolTableRecord
100
AcDbLinetypeTableRecord
2
BYLAYER
70
0
0
ENDTAB
0
TABLE
2
LAYER
5
2
100
AcDbSymbolTable
70
2
0
LAYER
5
50
100
AcDbSymbolTableRecord
100
AcDbLayerTableRecord
2
0
70
0
6
CONTINUOUS
0
ENDTAB
0
TABLE
2
STYLE
5
3
100
AcDbSymbolTable
70
1
0
STYLE
5
11
100
AcDbSymbolTableRecord
100
AcDbTextStyleTableRecord
2
STANDARD
70
0
0
ENDTAB
0
TABLE
2
VIEW
5
6
100
AcDbSymbolTable
70
0
0
ENDTAB
0
TABLE
2
UCS
5
7
100
AcDbSymbolTable
70
0
0
ENDTAB
0
TABLE
2
APPID
5
9
100
AcDbSymbolTable
70
2
0
APPID
5
12
100
AcDbSymbolTableRecord
100
AcDbRegAppTableRecord
2
ACAD
70
0
0
ENDTAB
0
TABLE
2
DIMSTYLE
5
A
100
AcDbSymbolTable
70
1
0
ENDTAB
0
TABLE
2
BLOCK_RECORD
5
1
100
AcDbSymbolTable
70
1
0
BLOCK_RECORD
5
1F
100
AcDbSymbolTableRecord
100
AcDbBlockTableRecord
2
*MODEL_SPACE
0
BLOCK_RECORD
5
1B
100
AcDbSymbolTableRecord
100
AcDbBlockTableRecord
2
*PAPER_SPACE
0
ENDTAB
0
ENDSEC
0
SECTION
2
BLOCKS
0
BLOCK
5
20
100
AcDbEntity
100
AcDbBlockBegin
2
*MODEL_SPACE
0
ENDBLK
5
21
100
AcDbEntity
100
AcDbBlockEnd
0
BLOCK
5
1C
100
AcDbEntity
100
AcDbBlockBegin
2
*PAPER_SPACE
0
ENDBLK
5
1D
100
AcDbEntity
100
AcDbBlockEnd
0
ENDSEC
0
SECTION
2
ENTITIES
0
LWPOLYLINE
5
100
100
AcDbEntity
8
0
100
AcDbPolyline
90
8
70
1
43
0.0
10
-19.700000000000056
20
-3.5000000000519824
10
-19.700000000000056
20
-1.500000000051972
42
0.41421356237309553
10
-20.200000000000053
20
-1.0000000000519738
10
-22.200000000000031
20
-1.0000000000519738
42
0.41421356237309459
10
-22.70000000000006
20
-1.5000000000519986
10
-22.70000000000006
20
-3.5000000000519824
42
0.41421356237309048
10
-22.200000000000067
20
-4.0000000000519718
10
-20.200000000000045
20
-4.0000000000519718
42
0.41421356237309537
0
LWPOLYLINE
5
101
100
AcDbEntity
8
0
100
AcDbPolyline
90
8
70
1
43
0.0
10
3.5180018003481162
20
-20.500000000053813
10
1.5180018003481304
20
-20.500000000053813
42
0.41421356237309881
10
1.0180018003491136
20
-21.000000000052829
10
1.0180018003481144
20
-23.000000000053827
42
0.41421356237309048
10
1.5180018003481037
20
-23.500000000053817
10
3.5180018003481162
20
-23.500000000053817
42
0.4142135623730957
10
4.0180018003481148
20
-23.000000000053817
10
4.0180018003481148
20
-21.000000000053809
42
0.4142135623730957
0
LWPOLYLINE
5
102
100
AcDbEntity
8
0
100
AcDbPolyline
90
8
70
1
43
0.0
10
-20.200000000000028
20
44.000000000286661
10
-22.200000000000006
20
44.000000000286661
42
0.41421356237309503
10
-22.700000000000031
20
43.50000000028664
10
-22.700000000000031
20
41.500000000286654
42
0.41421356237308204
10
-22.200000000000042
20
41.000000000286661
10
-20.200000000000017
20
41.000000000286661
42
0.4142135623730846
10
-19.700000000000028
20
41.500000000286654
10
-19.700000000000028
20
43.500000000286661
42
0.41421356237309764
0
LWPOLYLINE
5
103
100
AcDbEntity
8
0
100
AcDbPolyline
90
8
70
1
43
0.0
10
48.518001800350696
20
23.500000000000263
10
46.51800180035071
20
23.500000000000263
42
0.41421356237310281
10
46.018001800350696
20
23.000000000000249
10
46.018001800350696
20
21.000000000000249
42
0.41421356237309243
10
46.518001800350682
20
20.500000000000259
10
48.518001800350696
20
20.500000000000259
42
0.41421356237309503
10
49.018001800350689
20
21.000000000000259
10
49.018001800350689
20
23.000000000000263
42
0.41421356237309503
0
LWPOLYLINE
5
104
100
AcDbEntity
8
0
100
AcDbPolyline
90
8
70
1
43
0.0
10
-64.199999999999847
20
44.000000000289617
10
-66.199999999999818
20
44.000000000289617
42
0.41421356237307944
10
-66.699999999999832
20
43.500000000289603
10
-66.699999999999847
20
41.50000000028961
42
0.41421356237309503
10
-66.199999999999861
20
41.000000000289624
10
-64.199999999999832
20
41.000000000289624
42
0.41421356237309503
10
-63.699999999999847
20
41.500000000289617
10
-63.699999999999847
20
43.500000000289624
42
0.41421356237309503
0
CIRCLE
5
105
100
AcDbEntity
8
0
100
AcDbCircle
10
114.99999999999204
20
-19.999999999809624
30
0
40
4.499999999615234
0
LWPOLYLINE
5
106
100
AcDbEntity
8
0
100
AcDbPolyline
90
4
70
1
43
0.0
10
-9.7000000000000419
20
35.499999999947946
10
-76.699999999999847
20
35.499999999947981
10
-76.699999999999903
20
4.4999999999480558
10
-9.7000000000000419
20
4.4999999999480211
0
CIRCLE
5
107
100
AcDbEntity
8
0
100
AcDbCircle
10
-5.7000000000000526
20
10.99999999994801
30
0
40
2.0500000000000007
0
CIRCLE
5
108
100
AcDbEntity
8
0
100
AcDbCircle
10
114.99999999999204
20
-1.4999999998096223
30
0
40
2.10000000041072
0
CIRCLE
5
109
100
AcDbEntity
8
0
100
AcDbCircle
10
-80.699999999999875
20
28.999999999947942
30
0
40
2.0500000000000007
0
CIRCLE
5
110
100
AcDbEntity
8
0
100
AcDbCircle
10
16.01800180034958
20
-37.499999999999957
30
0
40
2.0500000000000007
0
CIRCLE
5
111
100
AcDbEntity
8
0
100
AcDbCircle
10
-80.699999999999875
20
10.999999999948001
30
0
40
2.0500000000000007
0
CIRCLE
5
112
100
AcDbEntity
8
0
100
AcDbCircle
10
-115.00000000000796
20
38.500000000416264
30
-1.1102230246251565e-15
40
2.1000000000000085
0
CIRCLE
5
113
100
AcDbEntity
8
0
100
AcDbCircle
10
-5.7000000000000552
20
28.999999999947953
30
0
40
2.0500000000000007
0
CIRCLE
5
114
100
AcDbEntity
8
0
100
AcDbCircle
10
-115.00000000000796
20
1.5000000004162515
30
-1.1102230246251565e-15
40
2.1000000000000085
0
LWPOLYLINE
5
115
100
AcDbEntity
8
0
100
AcDbPolyline
90
4
70
1
43
0.0
10
9.5180018003506106
20
33.500000000000391
10
9.5180018003479816
20
-33.499999999999545
10
40.518001800348316
20
-33.500000000000433
10
40.518001800350802
20
33.499999999999432
0
CIRCLE
5
116
100
AcDbEntity
8
0
100
AcDbCircle
10
34.018001800349481
20
-37.49999999999995
30
0
40
2.0500000000000007
0
CIRCLE
5
117
100
AcDbEntity
8
0
100
AcDbCircle
10
34.018001800349474
20
37.50000000000005
30
0
40
2.0500000000000007
0
CIRCLE
5
118
100
AcDbEntity
8
0
100
AcDbCircle
10
114.99999999999204
20
-38.499999999809631
30
0
40
2.1000000004342034
0
LWPOLYLINE
5
119
100
AcDbEntity
8
0
100
AcDbPolyline
90
8
70
1
43
0.0
10
70.000000000000014
20
-14.999999999999991
42
-0.41421356237309476
10
75
20
-9.9999999999999858
10
85
20
-9.9999999999999911
42
-0.41421356237309281
10
90
20
-14.999999999999989
10
90
20
-24.999999999999993
42
-0.4142135623730937
10
85.000000000000014
20
-29.999999999999996
10
75
20
-29.999999999999996
42
-0.41421356237309453
10
70.000000000000014
20
-24.999999999999996
0
CIRCLE
5
120
100
AcDbEntity
8
0
100
AcDbCircle
10
-115.00000000002315
20
20.000000000416275
30
-1.1102230246251565e-15
40
4.4999999995069295
0
CIRCLE
5
121
100
AcDbEntity
8
0
100
AcDbCircle
10
16.01800180034957
20
37.500000000000043
30
0
40
2.0500000000000007
0
LWPOLYLINE
5
122
100
AcDbEntity
8
0
100
AcDbPolyline
90
14
70
1
43
0.0
10
53.13099451296489
20
45.60660171808594
10
81.058731158843415
20
17.678865072195517
42
0.19891236737985374
10
99.597151359322282
20
10.000000000177934
10
114.99999999994237
20
10.00000000019055
42
-0.99999999999999989
10
115.00000000004171
20
-49.999999999809795
10
6.2132034358916153
20
-49.999999999967628
42
-0.1989123673796579
10
-4.3933982819030959
20
-45.606601717757286
10
-35.606601717761521
20
-14.393398281848619
42
0.19891236737965745
10
-46.213203435556039
20
-9.9999999996383533
10
-116.32995107681327
20
-9.9999999995819344
42
-0.40128369730944941
10
-145.00000000002314
20
19.970506004416233
10
-145.00000000000014
20
48.000000000293461
42
-0.41421356237286611
10
-143.00000000000009
20
50.000000000291827
10
42.524392795186081
20
50.000000000286668
42
-0.19891236737952273
0
ENDSEC
0
SECTION
2
OBJECTS
0
DICTIONARY
5
C
100
AcDbDictionary
3
ACAD_GROUP
350
D
3
ACAD_MLINESTYLE
350
17
0
DICTIONARY
5
D
100
AcDbDictionary
0
DICTIONARY
5
1A
330
C
100
AcDbDictionary
0
DICTIONARY
5
17
100
AcDbDictionary
0
ENDSEC
0
EOF
