0
SECTION
2
HEADER
9
$INSUNITS
70
4
9
$ACADVER
1
AC1014
9
$HANDSEED
5
FFFF
0
ENDSEC
0
SECTION
2
TABLES
0
TABLE
2
VPORT
5
8
100
AcDbSymbolTable
0
ENDTAB
0
TABLE
2
LTYPE
5
5
100
AcDbSymbolTable
0
LTYPE
5
14
100
AcDbSymbolTableRecord
100
AcDbLinetypeTableRecord
2
BYBLOCK
70
0
0
LTYPE
5
15
100
AcDbSymbolTableRecord
100
AcDbLinetypeTableRecord
2
BYLAYER
70
0
0
ENDTAB
0
TABLE
2
LAYER
5
2
100
AcDbSymbolTable
70
2
0
LAYER
5
50
100
AcDbSymbolTableRecord
100
AcDbLayerTableRecord
2
0
70
0
6
CONTINUOUS
0
ENDTAB
0
TABLE
2
STYLE
5
3
100
AcDbSymbolTable
70
1
0
STYLE
5
11
100
AcDbSymbolTableRecord
100
AcDbTextStyleTableRecord
2
STANDARD
70
0
0
ENDTAB
0
TABLE
2
VIEW
5
6
100
AcDbSymbolTable
70
0
0
ENDTAB
0
TABLE
2
UCS
5
7
100
AcDbSymbolTable
70
0
0
ENDTAB
0
TABLE
2
APPID
5
9
100
AcDbSymbolTable
70
2
0
APPID
5
12
100
AcDbSymbolTableRecord
100
AcDbRegAppTableRecord
2
ACAD
70
0
0
ENDTAB
0
TABLE
2
DIMSTYLE
5
A
100
AcDbSymbolTable
70
1
0
ENDTAB
0
TABLE
2
BLOCK_RECORD
5
1
100
AcDbSymbolTable
70
1
0
BLOCK_RECORD
5
1F
100
AcDbSymbolTableRecord
100
AcDbBlockTableRecord
2
*MODEL_SPACE
0
BLOCK_RECORD
5
1B
100
AcDbSymbolTableRecord
100
AcDbBlockTableRecord
2
*PAPER_SPACE
0
ENDTAB
0
ENDSEC
0
SECTION
2
BLOCKS
0
BLOCK
5
20
100
AcDbEntity
100
AcDbBlockBegin
2
*MODEL_SPACE
0
ENDBLK
5
21
100
AcDbEntity
100
AcDbBlockEnd
0
BLOCK
5
1C
100
AcDbEntity
100
AcDbBlockBegin
2
*PAPER_SPACE
0
ENDBLK
5
1D
100
AcDbEntity
100
AcDbBlockEnd
0
ENDSEC
0
SECTION
2
ENTITIES
0
LWPOLYLINE
5
100
100
AcDbEntity
8
0
100
AcDbPolyline
90
8
70
1
43
0.0
10
-48.999999999999979
20
56.180516204291479
10
-48.999999999999979
20
54.180516204291472
42
0.41421356237309503
10
-48.499999999999979
20
53.680516204291479
10
-46.499999999999986
20
53.680516204291479
42
0.41421356237307944
10
-45.999999999999979
20
54.180516204291472
10
-45.999999999999986
20
56.180516204291479
42
0.4142135623730846
10
-46.499999999999979
20
56.680516204291465
10
-48.499999999999979
20
56.680516204291472
42
0.41421356237310542
0
LWPOLYLINE
5
101
100
AcDbEntity
8
0
100
AcDbPolyline
90
8
70
1
43
0.0
10
1.5000000000000173
20
54.180516204291493
10
1.5000000000000542
20
56.180516204291486
42
0.41421356237308299
10
1.0000000000000597
20
56.680516204291479
10
-0.99999999999994227
20
56.680516204291472
42
0.41421356237309687
10
-1.4999999999999492
20
56.180516204291479
10
-1.4999999999999492
20
54.180516204291472
42
0.41421356237310936
10
-0.99999999999998213
20
53.680516204291479
10
1.0000000000000022
20
53.680516204291479
42
0.41421356237308515
0
LWPOLYLINE
5
102
100
AcDbEntity
8
0
100
AcDbPolyline
90
8
70
1
43
0.0
10
49.000000000000014
20
54.180516204291493
10
49
20
56.180516204291493
42
0.41421356237307944
10
48.499999999999986
20
56.680516204291507
10
46.499999999999986
20
56.680516204291479
42
0.41421356237309503
10
46.000000000000007
20
56.180516204291486
10
46.000000000000007
20
54.180516204291472
42
0.41421356237310542
10
46.499999999999943
20
53.680516204291479
10
48.5
20
53.680516204291479
42
0.41421356237307944
0
CIRCLE
5
103
100
AcDbEntity
8
0
100
AcDbCircle
10
-15.999999999999961
20
70.680516204291322
30
0
40
2.0500000000000007
0
LWPOLYLINE
5
104
100
AcDbEntity
8
0
100
AcDbPolyline
90
4
70
1
43
0.0
10
-40.499999999999986
20
66.680516204291379
10
-40.500000000000007
20
-0.3194837957085106
10
-9.5000000000000053
20
-0.31948379570847507
10
-9.4999999999999751
20
66.680516204291479
0
CIRCLE
5
105
100
AcDbEntity
8
0
100
AcDbCircle
10
-33.999999999999957
20
-4.319483795708674
30
0
40
2.0500000000000007
0
LWPOLYLINE
5
106
100
AcDbEntity
8
0
100
AcDbPolyline
90
8
70
1
43
0.0
10
-75.000000000000014
20
-0.019483795708429286
42
-0.41421356237309515
10
-80
20
4.9805162042915629
10
-80
20
54.980516204291582
42
-0.41421356237309503
10
-75.000000000000014
20
59.980516204291575
10
-64.999999999999986
20
59.980516204291575
42
-0.41421356237309503
10
-60
20
54.980516204291582
10
-60
20
4.9805162042915638
42
-0.41421356237309492
10
-65
20
-0.019483795708432616
0
CIRCLE
5
107
100
AcDbEntity
8
0
100
AcDbCircle
10
-25
20
-75.01948379570851
30
0
40
4.5000000000000018
0
CIRCLE
5
108
100
AcDbEntity
8
0
100
AcDbCircle
10
-25
20
-56.519483795708524
30
0
40
2.0500000000000007
0
CIRCLE
5
109
100
AcDbEntity
8
0
100
AcDbCircle
10
90.000000000000014
20
69.980516204291575
30
0
40
3.0499999999999972
0
CIRCLE
5
110
100
AcDbEntity
8
0
100
AcDbCircle
10
-33.999999999999957
20
70.680516204291322
30
0
40
2.0500000000000007
0
CIRCLE
5
111
100
AcDbEntity
8
0
100
AcDbCircle
10
25.000000000000007
20
-93.519483795708538
30
0
40
2.0500000000000007
0
CIRCLE
5
112
100
AcDbEntity
8
0
100
AcDbCircle
10
34
20
-4.3194837957085142
30
0
40
2.0500000000000007
0
CIRCLE
5
113
100
AcDbEntity
8
0
100
AcDbCircle
10
25
20
-75.01948379570851
30
0
40
4.5000000000000018
0
CIRCLE
5
114
100
AcDbEntity
8
0
100
AcDbCircle
10
34
20
70.680516204291479
30
0
40
2.0500000000000007
0
CIRCLE
5
115
100
AcDbEntity
8
0
100
AcDbCircle
10
-25.000000000000007
20
-93.51948379570851
30
0
40
2.0500000000000007
0
LWPOLYLINE
5
116
100
AcDbEntity
8
0
100
AcDbPolyline
90
4
70
1
43
0.0
10
9.5000000000000071
20
66.680516204291408
10
9.499999999999984
20
-0.3194837957085106
10
40.500000000000007
20
-0.31948379570848395
10
40.500000000000043
20
66.680516204291479
0
CIRCLE
5
117
100
AcDbEntity
8
0
100
AcDbCircle
10
-15.999999999999961
20
-4.319483795708674
30
0
40
2.0500000000000007
0
CIRCLE
5
118
100
AcDbEntity
8
0
100
AcDbCircle
10
25
20
-56.519483795708524
30
0
40
2.0500000000000007
0
LWPOLYLINE
5
119
100
AcDbEntity
8
0
100
AcDbPolyline
90
8
70
1
43
0.0
10
70.000000000000043
20
129.98051620429158
42
-0.41421356237309398
10
80.000000000000028
20
119.98051620429159
10
80.000000000000028
20
99.980516204291575
42
-0.41421356237309609
10
70.000000000000028
20
89.980516204291575
10
-70
20
89.980516204291533
42
-0.41421356237309503
10
-80
20
99.980516204291575
10
-79.999999999999986
20
119.98051620429158
42
-0.41421356237309503
10
-69.999999999999986
20
129.98051620429158
0
CIRCLE
5
120
100
AcDbEntity
8
0
100
AcDbCircle
10
15.999999999999998
20
-4.3194837957085142
30
0
40
2.0500000000000007
0
LWPOLYLINE
5
121
100
AcDbEntity
8
0
100
AcDbPolyline
90
8
70
1
43
0.0
10
80.000000000000014
20
4.9805162042915514
42
-0.41421356237309553
10
75.000000000000028
20
-0.019483795708428175
10
65.000000000000043
20
-0.019483795708431506
42
-0.41421356237309531
10
60.000000000000036
20
4.9805162042915718
10
60.000000000000036
20
54.980516204291582
42
-0.41421356237309503
10
65.000000000000028
20
59.980516204291575
10
75.000000000000028
20
59.980516204291575
42
-0.41421356237309453
10
80.000000000000014
20
54.980516204291582
0
CIRCLE
5
122
100
AcDbEntity
8
0
100
AcDbCircle
10
15.999999999999998
20
70.680516204291479
30
0
40
2.0500000000000007
0
CIRCLE
5
123
100
AcDbEntity
8
0
100
AcDbCircle
10
-90
20
69.980516204291575
30
0
40
3.0499999999999972
0
CIRCLE
5
124
100
AcDbEntity
8
0
100
AcDbCircle
10
8.570141452767286e-15
20
69.980516204291575
30
0
40
3.0500000000000056
0
CIRCLE
5
125
100
AcDbEntity
8
0
100
AcDbCircle
10
-89.999999999999986
20
139.98051620429158
30
0
40
3.0499999999999972
0
CIRCLE
5
126
100
AcDbEntity
8
0
100
AcDbCircle
10
90.000000000000014
20
139.98051620429158
30
0
40
3.0499999999999972
0
CIRCLE
5
127
100
AcDbEntity
8
0
100
AcDbCircle
10
0
20
-90.019483795708425
30
0
40
3.0500000000000056
0
CIRCLE
5
128
100
AcDbEntity
8
0
100
AcDbCircle
10
0
20
-10
30
0
40
3.0500000000000056
0
CIRCLE
5
129
100
AcDbEntity
8
0
100
AcDbCircle
10
-90
20
-10
30
0
40
3.0499999999999972
0
CIRCLE
5
130
100
AcDbEntity
8
0
100
AcDbCircle
10
90.000001341104507
20
-10.000000149011612
30
0
40
3.0499999999999972
0
LWPOLYLINE
5
131
100
AcDbEntity
8
0
100
AcDbPolyline
90
16
70
1
43
0.0
10
100.00000000000001
20
-5.0194837957084317
42
-0.41421356237309503
10
85.000000000000014
20
-20.019483795708428
10
70.000000000000014
20
-20.019483795708428
42
0.41421356237309503
10
55
20
-35.019483795708446
10
55
20
-85.019483795708425
42
-0.41421356237309498
10
40
20
-100.01948379570842
10
-39.999999999999993
20
-100.01948379570842
42
-0.41421356237309503
10
-54.999999999999993
20
-85.019483795708425
10
-55
20
-35.019483795708425
42
0.41421356237309515
10
-70.000000000000014
20
-20.01948379570841
10
-85
20
-20.019483795708428
42
-0.41421356237309503
10
-100
20
-5.0194837957084282
10
-99.999999999999986
20
134.98051620429158
42
-0.41421356237309503
10
-84.999999999999986
20
149.98051620429158
10
85.000000000000014
20
149.98051620429158
42
-0.41421356237309542
10
100.00000000000001
20
134.98051620429155
0
ENDSEC
0
SECTION
2
OBJECTS
0
DICTIONARY
5
C
100
AcDbDictionary
3
ACAD_GROUP
350
D
3
ACAD_MLINESTYLE
350
17
0
DICTIONARY
5
D
100
AcDbDictionary
0
DICTIONARY
5
1A
330
C
100
AcDbDictionary
0
DICTIONARY
5
17
100
AcDbDictionary
0
ENDSEC
0
EOF
