0
SECTION
2
HEADER
9
$INSUNITS
70
4
9
$ACADVER
1
AC1014
9
$HANDSEED
5
FFFF
0
ENDSEC
0
SECTION
2
TABLES
0
TABLE
2
VPORT
5
8
100
AcDbSymbolTable
0
ENDTAB
0
TABLE
2
LTYPE
5
5
100
AcDbSymbolTable
0
LTYPE
5
14
100
AcDbSymbolTableRecord
100
AcDbLinetypeTableRecord
2
BYBLOCK
70
0
0
LTYPE
5
15
100
AcDbSymbolTableRecord
100
AcDbLinetypeTableRecord
2
BYLAYER
70
0
0
ENDTAB
0
TABLE
2
LAYER
5
2
100
AcDbSymbolTable
70
2
0
LAYER
5
50
100
AcDbSymbolTableRecord
100
AcDbLayerTableRecord
2
0
70
0
6
CONTINUOUS
0
ENDTAB
0
TABLE
2
STYLE
5
3
100
AcDbSymbolTable
70
1
0
STYLE
5
11
100
AcDbSymbolTableRecord
100
AcDbTextStyleTableRecord
2
STANDARD
70
0
0
ENDTAB
0
TABLE
2
VIEW
5
6
100
AcDbSymbolTable
70
0
0
ENDTAB
0
TABLE
2
UCS
5
7
100
AcDbSymbolTable
70
0
0
ENDTAB
0
TABLE
2
APPID
5
9
100
AcDbSymbolTable
70
2
0
APPID
5
12
100
AcDbSymbolTableRecord
100
AcDbRegAppTableRecord
2
ACAD
70
0
0
ENDTAB
0
TABLE
2
DIMSTYLE
5
A
100
AcDbSymbolTable
70
1
0
ENDTAB
0
TABLE
2
BLOCK_RECORD
5
1
100
AcDbSymbolTable
70
1
0
BLOCK_RECORD
5
1F
100
AcDbSymbolTableRecord
100
AcDbBlockTableRecord
2
*MODEL_SPACE
0
BLOCK_RECORD
5
1B
100
AcDbSymbolTableRecord
100
AcDbBlockTableRecord
2
*PAPER_SPACE
0
ENDTAB
0
ENDSEC
0
SECTION
2
BLOCKS
0
BLOCK
5
20
100
AcDbEntity
100
AcDbBlockBegin
2
*MODEL_SPACE
0
ENDBLK
5
21
100
AcDbEntity
100
AcDbBlockEnd
0
BLOCK
5
1C
100
AcDbEntity
100
AcDbBlockBegin
2
*PAPER_SPACE
0
ENDBLK
5
1D
100
AcDbEntity
100
AcDbBlockEnd
0
ENDSEC
0
SECTION
2
ENTITIES
0
LWPOLYLINE
5
100
100
AcDbEntity
8
0
100
AcDbPolyline
90
8
70
1
43
0.0
10
-19.950000000000006
20
-3.2500000000521325
10
-19.950000000000006
20
-1.2500000000521194
42
0.41421356237309553
10
-20.450000000000003
20
-0.7500000000521212
10
-22.449999999999982
20
-0.7500000000521212
42
0.41421356237309459
10
-22.95000000000001
20
-1.2500000000521461
10
-22.95000000000001
20
-3.2500000000521325
42
0.41421356237309048
10
-22.450000000000017
20
-3.7500000000521219
10
-20.449999999999996
20
-3.7500000000521219
42
0.41421356237309048
0
LWPOLYLINE
5
101
100
AcDbEntity
8
0
100
AcDbPolyline
90
8
70
1
43
0.0
10
3.7680018003470872
20
-20.25000000000086
10
1.7680018003461015
20
-20.25000000000086
42
0.41421356237309992
10
1.2680018003470848
20
-20.749999999999879
10
1.2680018003470848
20
-22.75000000000087
42
0.41421356237309015
10
1.7680018003470741
20
-23.25000000000086
10
3.7680018003470872
20
-23.25000000000086
42
0.4142135623730957
10
4.2680018003470854
20
-22.75000000000086
10
4.2680018003470854
20
-20.75000000000086
42
0.4142135623730957
0
LWPOLYLINE
5
102
100
AcDbEntity
8
0
100
AcDbPolyline
90
8
70
1
43
0.0
10
-20.449999999999978
20
44.000000000286661
10
-22.449999999999957
20
44.000000000286661
42
0.41421356237309503
10
-22.949999999999982
20
43.50000000028664
10
-22.949999999999982
20
41.500000000286654
42
0.41421356237308204
10
-22.449999999999992
20
41.000000000286661
10
-20.449999999999967
20
41.000000000286661
42
0.41421356237308204
10
-19.949999999999978
20
41.500000000286654
10
-19.949999999999978
20
43.500000000286661
42
0.41421356237309764
0
LWPOLYLINE
5
103
100
AcDbEntity
8
0
100
AcDbPolyline
90
8
70
1
43
0.0
10
48.268001800351918
20
23.250000000000814
10
46.268001800351932
20
23.250000000000814
42
0.41421356237309243
10
45.768001800351918
20
22.750000000000799
10
45.768001800351918
20
20.750000000000806
42
0.41421356237309243
10
46.268001800351904
20
20.250000000000817
10
48.268001800351918
20
20.250000000000817
42
0.41421356237309503
10
48.768001800351911
20
20.750000000000814
10
48.768001800351911
20
22.750000000000817
42
0.41421356237309503
0
LWPOLYLINE
5
104
100
AcDbEntity
8
0
100
AcDbPolyline
90
8
70
1
43
0.0
10
-63.949999999999946
20
44.000000000289617
10
-65.949999999999932
20
44.000000000289617
42
0.41421356237307422
10
-66.449999999999946
20
43.500000000289603
10
-66.449999999999946
20
41.50000000028961
42
0.4142135623730846
10
-65.94999999999996
20
41.000000000289624
10
-63.949999999999946
20
41.000000000289624
42
0.41421356237310542
10
-63.449999999999946
20
41.500000000289617
10
-63.449999999999946
20
43.500000000289624
42
0.41421356237309503
0
CIRCLE
5
105
100
AcDbEntity
8
0
100
AcDbCircle
10
34.018001800349481
20
-37.49999999999995
30
0
40
2.0500000000000007
0
LWPOLYLINE
5
106
100
AcDbEntity
8
0
100
AcDbPolyline
90
4
70
1
43
0.0
10
-9.9499999999999833
20
35.249999999947995
10
-76.449999999999946
20
35.249999999948024
10
-76.449999999999974
20
4.7499999999479909
10
-9.9499999999999478
20
4.7499999999478737
0
CIRCLE
5
107
100
AcDbEntity
8
0
100
AcDbCircle
10
-5.7000000000000552
20
28.999999999947956
30
0
40
2.0500000000000007
0
CIRCLE
5
108
100
AcDbEntity
8
0
100
AcDbCircle
10
-80.699999999999875
20
10.999999999948002
30
0
40
2.0500000000000007
0
CIRCLE
5
109
100
AcDbEntity
8
0
100
AcDbCircle
10
-5.7000000000000526
20
10.999999999948011
30
0
40
2.0500000000000007
0
CIRCLE
5
110
100
AcDbEntity
8
0
100
AcDbCircle
10
114.99999999999204
20
-19.999999999809621
30
0
40
4.499999999615234
0
CIRCLE
5
111
100
AcDbEntity
8
0
100
AcDbCircle
10
-80.699999999999875
20
28.999999999947946
30
0
40
2.0500000000000007
0
CIRCLE
5
112
100
AcDbEntity
8
0
100
AcDbCircle
10
34.018001800349474
20
37.50000000000005
30
0
40
2.0500000000000007
0
LWPOLYLINE
5
113
100
AcDbEntity
8
0
100
AcDbPolyline
90
8
70
1
43
0.0
10
70
20
-14.999999999999989
42
-0.41421356237309553
10
75
20
-9.999999999999984
10
85
20
-9.9999999999999858
42
-0.41421356237309293
10
90
20
-14.999999999999986
10
90
20
-24.999999999999993
42
-0.41421356237309398
10
85.000000000000014
20
-29.999999999999993
10
75
20
-29.999999999999986
42
-0.41421356237309531
10
70.000000000000014
20
-24.999999999999993
0
LWPOLYLINE
5
114
100
AcDbEntity
8
0
100
AcDbPolyline
90
4
70
1
43
0.0
10
9.7680018003495483
20
33.250000000000924
10
9.7680018003469549
20
-33.250000000000007
10
40.268001800349573
20
-33.25000000000086
10
40.268001800352025
20
33.250000000000014
0
CIRCLE
5
115
100
AcDbEntity
8
0
100
AcDbCircle
10
-115.00000000000796
20
38.500000000416264
30
-1.1102230246251565e-15
40
2.1000000000000085
0
CIRCLE
5
116
100
AcDbEntity
8
0
100
AcDbCircle
10
114.99999999999204
20
-1.4999999998096201
30
0
40
2.10000000041072
0
CIRCLE
5
117
100
AcDbEntity
8
0
100
AcDbCircle
10
16.01800180034958
20
-37.499999999999957
30
0
40
2.0500000000000007
0
CIRCLE
5
118
100
AcDbEntity
8
0
100
AcDbCircle
10
16.01800180034957
20
37.500000000000043
30
0
40
2.0500000000000007
0
CIRCLE
5
119
100
AcDbEntity
8
0
100
AcDbCircle
10
114.99999999999204
20
-38.499999999809624
30
0
40
2.1000000004342034
0
CIRCLE
5
120
100
AcDbEntity
8
0
100
AcDbCircle
10
-115.00000000000796
20
1.5000000004162537
30
-1.1102230246251565e-15
40
2.1000000000000085
0
CIRCLE
5
121
100
AcDbEntity
8
0
100
AcDbCircle
10
-115.00000000000001
20
20.000000000416268
30
-1.1102230246251565e-15
40
4.4999999995069295
0
LWPOLYLINE
5
122
100
AcDbEntity
8
0
100
AcDbPolyline
90
14
70
1
43
0.0
10
53.13099451296489
20
45.606601718085962
10
81.058731158843415
20
17.678865072195521
42
0.19891236737985377
10
99.597151359322282
20
10.000000000177936
10
114.99999999994237
20
10.000000000190557
42
-0.99999999999999989
10
115.00000000004171
20
-49.999999999809795
10
6.2132034358503807
20
-49.999999999967443
42
-0.1989123673796579
10
-4.3933982819443251
20
-45.606601717757094
10
-35.606601717801837
20
-14.393398281849363
42
0.19891236737965801
10
-46.213203435596391
20
-9.9999999996390923
10
-116.32995107681225
20
-9.9999999995588666
42
-0.40128369730944863
10
-145.00000000000003
20
19.970506004416144
10
-144.99999999997701
20
48.000000000440899
42
-0.41421356237309631
10
-142.99999999997539
20
50.000000000439243
10
42.524392795186081
20
50.000000000286676
42
-0.1989123673795225
0
ENDSEC
0
SECTION
2
OBJECTS
0
DICTIONARY
5
C
100
AcDbDictionary
3
ACAD_GROUP
350
D
3
ACAD_MLINESTYLE
350
17
0
DICTIONARY
5
D
100
AcDbDictionary
0
DICTIONARY
5
1A
330
C
100
AcDbDictionary
0
DICTIONARY
5
17
100
AcDbDictionary
0
ENDSEC
0
EOF
