0
SECTION
2
HEADER
9
$INSUNITS
70
4
9
$ACADVER
1
AC1014
9
$HANDSEED
5
FFFF
0
ENDSEC
0
SECTION
2
TABLES
0
TABLE
2
VPORT
5
8
100
AcDbSymbolTable
0
ENDTAB
0
TABLE
2
LTYPE
5
5
100
AcDbSymbolTable
0
LTYPE
5
14
100
AcDbSymbolTableRecord
100
AcDbLinetypeTableRecord
2
BYBLOCK
70
0
0
LTYPE
5
15
100
AcDbSymbolTableRecord
100
AcDbLinetypeTableRecord
2
BYLAYER
70
0
0
ENDTAB
0
TABLE
2
LAYER
5
2
100
AcDbSymbolTable
70
2
0
LAYER
5
50
100
AcDbSymbolTableRecord
100
AcDbLayerTableRecord
2
0
70
0
6
CONTINUOUS
0
ENDTAB
0
TABLE
2
STYLE
5
3
100
AcDbSymbolTable
70
1
0
STYLE
5
11
100
AcDbSymbolTableRecord
100
AcDbTextStyleTableRecord
2
STANDARD
70
0
0
ENDTAB
0
TABLE
2
VIEW
5
6
100
AcDbSymbolTable
70
0
0
ENDTAB
0
TABLE
2
UCS
5
7
100
AcDbSymbolTable
70
0
0
ENDTAB
0
TABLE
2
APPID
5
9
100
AcDbSymbolTable
70
2
0
APPID
5
12
100
AcDbSymbolTableRecord
100
AcDbRegAppTableRecord
2
ACAD
70
0
0
ENDTAB
0
TABLE
2
DIMSTYLE
5
A
100
AcDbSymbolTable
70
1
0
ENDTAB
0
TABLE
2
BLOCK_RECORD
5
1
100
AcDbSymbolTable
70
1
0
BLOCK_RECORD
5
1F
100
AcDbSymbolTableRecord
100
AcDbBlockTableRecord
2
*MODEL_SPACE
0
BLOCK_RECORD
5
1B
100
AcDbSymbolTableRecord
100
AcDbBlockTableRecord
2
*PAPER_SPACE
0
ENDTAB
0
ENDSEC
0
SECTION
2
BLOCKS
0
BLOCK
5
20
100
AcDbEntity
100
AcDbBlockBegin
2
*MODEL_SPACE
0
ENDBLK
5
21
100
AcDbEntity
100
AcDbBlockEnd
0
BLOCK
5
1C
100
AcDbEntity
100
AcDbBlockBegin
2
*PAPER_SPACE
0
ENDBLK
5
1D
100
AcDbEntity
100
AcDbBlockEnd
0
ENDSEC
0
SECTION
2
ENTITIES
0
LWPOLYLINE
5
100
100
AcDbEntity
8
0
100
AcDbPolyline
90
8
70
1
43
0.0
10
-99.808803253505658
20
21.500000000000469
10
-99.808803253505658
20
23.500000000000448
42
0.41421356237309243
10
-100.30880325350566
20
24.000000000000455
10
-102.30880325350569
20
24.000000000000444
42
0.41421356237309764
10
-102.80880325350566
20
23.500000000000473
10
-102.80880325350566
20
21.500000000000291
42
0.41421356237309764
10
-102.30880325350569
20
21.00000000000032
10
-100.30880325350566
20
21.000000000000458
42
0.41421356237311846
0
LWPOLYLINE
5
101
100
AcDbEntity
8
0
100
AcDbPolyline
90
8
70
1
43
0.0
10
-143.80880325350569
20
24.000000000000419
10
-145.80880325350572
20
24.000000000000419
42
0.41421356237309764
10
-146.30880325350569
20
23.500000000000448
10
-146.30880325350569
20
21.500000000000462
42
0.41421356237309764
10
-145.80880325350572
20
21.00000000000049
10
-143.80880325350569
20
21.00000000000049
42
0.41421356237311846
10
-143.30880325350569
20
21.500000000000501
10
-143.30880325350569
20
23.500000000000412
42
0.41421356237307161
0
LWPOLYLINE
5
102
100
AcDbEntity
8
0
100
AcDbPolyline
90
8
70
1
43
0.0
10
-143.30880325350569
20
-23.499999999999748
10
-143.30880325350569
20
-21.499999999999773
42
0.41421356237310542
10
-143.80880325350572
20
-20.999999999999766
10
-145.80880325350574
20
-20.999999999999819
42
0.41421356237306639
10
-146.30880325350569
20
-21.49999999999979
10
-146.30880325350569
20
-23.499999999999787
42
0.41421356237309764
10
-145.80880325350572
20
-23.999999999999758
10
-143.80880325350569
20
-23.999999999999758
42
0.41421356237311846
0
CIRCLE
5
103
100
AcDbEntity
8
0
100
AcDbCircle
10
-248.5
20
-14.99999999999967
30
0
40
2.1000000000000085
0
CIRCLE
5
104
100
AcDbEntity
8
0
100
AcDbCircle
10
-85.558803253505715
20
9
30
0
40
2.0500000000000007
0
CIRCLE
5
105
100
AcDbEntity
8
0
100
AcDbCircle
10
-85.558803253505715
20
-9
30
0
40
2.0500000000000007
0
CIRCLE
5
106
100
AcDbEntity
8
0
100
AcDbCircle
10
-49.000000000000028
20
20.000000000000618
30
0
40
2.0500000000000007
0
CIRCLE
5
107
100
AcDbEntity
8
0
100
AcDbCircle
10
-211.5
20
-14.999999999999666
30
0
40
2.1000000000000085
0
CIRCLE
5
108
100
AcDbEntity
8
0
100
AcDbCircle
10
-230
20
-14.999999999999666
30
0
40
4.4999999999999929
0
CIRCLE
5
109
100
AcDbEntity
8
0
100
AcDbCircle
10
-160.55880325350572
20
-9
30
0
40
2.0499999999999829
0
LWPOLYLINE
5
110
100
AcDbEntity
8
0
100
AcDbPolyline
90
4
70
1
43
0.0
10
-156.30880325350569
20
-15.249999999999964
10
-89.808803253505701
20
-15.250000000000082
10
-89.808803253505673
20
15.249999999999961
10
-156.30880325350569
20
15.250000000000131
0
CIRCLE
5
111
100
AcDbEntity
8
0
100
AcDbCircle
10
-69.000000000000028
20
20.000000000000597
30
0
40
2.0500000000000007
0
CIRCLE
5
112
100
AcDbEntity
8
0
100
AcDbCircle
10
-69.000000000000028
20
-9.9999999999994049
30
0
40
2.0500000000000007
0
CIRCLE
5
113
100
AcDbEntity
8
0
100
AcDbCircle
10
-160.55880325350572
20
9
30
0
40
2.0499999999999829
0
LWPOLYLINE
5
114
100
AcDbEntity
8
0
100
AcDbPolyline
90
6
70
1
43
0.0
10
-190.33095109961647
20
-14.999999999999892
42
-0.66817863791929966
10
-192.4522714431761
20
-9.8786796564402408
10
-176.43012359706532
20
6.1434681896704983
42
-0.66817863791930399
10
-171.30880325350572
20
4.0221478461108839
10
-171.30880325350572
20
-12.000000000000043
42
-0.41421356237308915
10
-174.30880325350572
20
-15.00000000000005
0
LWPOLYLINE
5
115
100
AcDbEntity
8
0
100
AcDbPolyline
90
16
70
1
43
0.0
10
-31.000000000000018
20
14.686291501015937
42
-0.1989123673796579
10
-31.585786437626933
20
13.27207793864282
10
-70.464466094067731
20
-25.606601717798082
42
-0.1989123673796579
10
-81.071067811865944
20
-29.999999999999876
10
-229.99999999999997
20
-29.999999999999673
42
-0.10476769296925886
10
-236.08279835781099
20
-28.711293306548548
10
-251.37762476046714
20
-21.925985542718234
42
-0.65888682383080033
10
-251.54054054054055
20
-8.1439724897478669
10
-236.08107996321448
20
-1.2879444837398435
42
-0.10473604092331551
10
-229.99999865792844
20
2.7311486405778851e-13
10
-209.99999865792844
20
2.1316282072803006e-13
42
0.19891236737965839
10
-199.39339694012997
20
4.3933982822021189
10
-178.18019350453315
20
25.60660171779892
42
-0.19891236737965812
10
-167.57359178673514
20
30.000000000000632
10
-33.000000000000036
20
30.000000000000554
42
-0.41421356237309437
10
-31.000000000000014
20
28.00000000000054
0
ENDSEC
0
SECTION
2
OBJECTS
0
DICTIONARY
5
C
100
AcDbDictionary
3
ACAD_GROUP
350
D
3
ACAD_MLINESTYLE
350
17
0
DICTIONARY
5
D
100
AcDbDictionary
0
DICTIONARY
5
1A
330
C
100
AcDbDictionary
0
DICTIONARY
5
17
100
AcDbDictionary
0
ENDSEC
0
EOF
